<?xml version="1.0" encoding="utf-8"?>
<!-- Generator: Adobe Illustrator 21.0.0, SVG Export Plug-In . SVG Version: 6.00 Build 0)  -->
<svg version="1.1" id="Capa_1" xmlns="http://www.w3.org/2000/svg" xmlns:xlink="http://www.w3.org/1999/xlink" x="0px" y="0px"
	 viewBox="0 0 126 94" style="enable-background:new 0 0 126 94;" xml:space="preserve">
<style type="text/css">
	.st0{fill-rule:evenodd;clip-rule:evenodd;fill:#FFFFFF;stroke:#211915;stroke-width:0.216;stroke-miterlimit:22.9256;}
	.st1{fill-rule:evenodd;clip-rule:evenodd;fill:#F57C00;}
	.st2{fill:none;stroke:#0D47A1;stroke-width:2.8347;stroke-miterlimit:22.9256;}
	.st3{fill:#0D47A1;}
	.st4{fill:#FFFFFF;}
	.st5{fill:#F57C00;}
</style>
<g>
	<path class="st0" d="M11.5,67H119V18.6c0-6.6-5.4-12.1-12.1-12.1H23.6C17,6.6,11.5,12,11.5,18.6V67L11.5,67z"/>
	<path class="st1" d="M10.4,67h108.9v9.6c0,5.3-4.3,9.6-9.6,9.6H20.1c-5.3,0-9.6-4.3-9.6-9.6V67L10.4,67z"/>
	<path class="st2" d="M22.5,5.4h84.3c6.7,0,12.1,5.5,12.1,12.1v56.6c0,6.7-5.5,12.1-12.1,12.1H22.5c-6.7,0-12.1-5.5-12.1-12.1V17.6
		C10.4,10.9,15.9,5.4,22.5,5.4L22.5,5.4z"/>
	<polygon class="st3" points="80.3,61.1 84.4,55 86.6,55 90.7,61.1 91.6,61.1 86.8,54.3 84.2,54.3 79.5,61.1 80.3,61.1 	"/>
	<path class="st3" d="M92.9,58.9c0,1.2,0.9,2.2,2.1,2.2h6.2c1.1,0,2.1-0.8,2.1-1.9v-4.9h-0.9v4.9c0,0.6-0.5,1.2-1.1,1.2h-6.4
		c-0.7,0-1.2-0.6-1.2-1.3v-4.8h-0.9V58.9L92.9,58.9z"/>
	<path class="st3" d="M78.4,59c0-0.6-0.2-0.8-0.3-0.8l-0.1-0.1l0.2-0.1c0.3-0.2,0.3-0.7,0.3-0.8v-1.1c0-1-0.8-1.8-1.8-1.8h-8.5v6.8
		l0.9,0V55h7.4c0.6,0,1.2,0.5,1.2,1.1v1.1c0,0.3-0.2,0.7-0.3,0.8L77,58.1l0.1,0.1c0.2,0.2,0.3,0.3,0.3,0.8v2.1h0.9V59L78.4,59z"/>
	<path class="st3" d="M55.6,54.3l0,6.8h8.1c1,0,2-0.7,2-1.8v-3.2c0-1.1-1-1.8-2.1-1.8H55.6L55.6,54.3z"/>
	<polygon class="st3" points="53.3,61.1 53.3,60.4 44.1,60.4 44.1,55 53.3,55 53.3,54.3 43.3,54.3 43.3,61.1 53.3,61.1 	"/>
	<path class="st3" d="M19.7,59.2c0-0.3,0-3.1,0-3.1c0.1-0.6,0.3-1,1.2-1h8v-0.7h-8c-1,0-2,0.7-2,1.8v3.1c0,1,0.9,1.9,1.9,1.9h8v-0.7
		h-8C20.1,60.4,19.7,59.8,19.7,59.2L19.7,59.2z"/>
	<polygon class="st3" points="89.3,61.1 90.3,61.1 88.9,59.3 82,59.3 80.7,61.1 81.7,61.1 82.4,60 88.5,60 89.3,61.1 	"/>
	<polygon class="st3" points="44.5,57.5 53.4,57.5 53.4,56.7 45.3,56.7 45.3,56.1 53.4,56.1 53.4,55.4 44.5,55.4 44.5,57.5 	"/>
	<polygon class="st3" points="44.5,57.9 44.5,60 53.4,60 53.4,59.2 45.3,59.2 45.3,58.6 53.4,58.6 53.4,57.9 44.5,57.9 	"/>
	<path class="st3" d="M20.1,59.2c0,0.4,0.3,0.8,0.7,0.8h8v-0.8h-8v-3.1h8v-0.7h-8c-0.4,0-0.7,0.3-0.7,0.7V59.2L20.1,59.2z"/>
	<path class="st4" d="M63.7,55c0.6,0,1.2,0.4,1.2,1.1v3.1c0,0.7-0.6,1.2-1.2,1.2h-7.3V55H63.7L63.7,55z"/>
	<path class="st3" d="M101.2,59.2h-6.3v-4.9h-0.8v4.9c0,0.4,0.3,0.8,0.8,0.8h6.3c0.4,0,0.8-0.3,0.8-0.8v-4.9h-0.8V59.2L101.2,59.2z"
		/>
	<path class="st3" d="M69.3,61.1h0.9V59h6.1v2.1h0.9V59c0-0.5-0.4-0.7-0.9-0.7h-6.9V61.1L69.3,61.1z"/>
	<path class="st3" d="M76.3,58c0.4,0,0.9-0.3,0.9-0.8v-0.9c0-0.5-0.4-0.9-0.8-0.9h-7V58H76.3L76.3,58z"/>
	<path class="st3" d="M63.7,55.4h-6.9V60h6.9c0.4,0,0.8-0.3,0.8-0.8v-3.2C64.5,55.7,64.1,55.4,63.7,55.4L63.7,55.4z"/>
	<polygon class="st3" points="32.3,57.5 39.9,57.5 39.9,54.3 39.2,54.3 39.2,56.7 33,56.7 33,54.3 32.3,54.3 32.3,57.5 	"/>
	<polygon class="st3" points="32.3,57.9 32.3,61.1 33,61.1 33,58.6 39.2,58.6 39.2,61.1 39.9,61.1 39.9,57.9 32.3,57.9 	"/>
	<polygon class="st3" points="86.4,55.4 84.6,55.4 82.3,58.8 88.7,58.8 86.4,55.4 	"/>
	<polygon class="st4" points="63.7,56.1 63.7,59.2 57.7,59.2 57.7,56.1 63.7,56.1 	"/>
	<polygon class="st4" points="70.2,56.1 76.3,56.1 76.2,57.3 70.2,57.3 70.2,56.1 	"/>
	<polygon class="st4" points="87.3,58 83.8,58 85,56.1 86.1,56.1 87.3,58 	"/>
	<polygon class="st5" points="63.5,41.6 54.9,51.9 60.5,51.9 68.2,42.6 76.3,51.9 81.7,51.9 72.8,41.6 63.5,41.6 	"/>
	<polygon class="st5" points="54.1,38 42.5,51.9 49.5,51.9 61.2,38 54.1,38 	"/>
	<polygon class="st5" points="80.3,35.9 86,47.3 95.4,47.3 95.4,40.5 84.8,40.5 82.4,35.9 80.3,35.9 	"/>
	<polygon class="st5" points="66,25.8 73.6,34.8 79.5,34.8 72,25.8 66,25.8 	"/>
	<polygon class="st5" points="66,27.2 66,36.5 61.3,40.5 72.8,40.5 72.9,35.4 66,27.2 	"/>
	<polygon class="st5" points="41.3,44.7 35.2,51.9 40.7,51.9 46.9,44.7 41.3,44.7 	"/>
	<polygon class="st5" points="41.3,32.8 48.8,42 51.9,38.4 47.2,32.7 41.3,32.8 	"/>
	<polygon class="st5" points="54.9,23 62.9,32.8 64.7,32.8 64.7,27.4 61,23 54.9,23 	"/>
	<path class="st5" d="M58.2,13.5c-2.3,0-4.2,1.9-4.2,4.2c0,2.3,1.9,4.2,4.2,4.2c2.3,0,4.2-1.9,4.2-4.2
		C62.4,15.4,60.5,13.5,58.2,13.5L58.2,13.5z"/>
	<polygon class="st5" points="54.6,24.2 54.7,36.9 61.8,36.9 61.8,32.9 54.6,24.2 	"/>
	<path class="st5" d="M69.3,17.8c-1.9,0-3.5,1.6-3.5,3.5c0,1.9,1.6,3.5,3.5,3.5c1.9,0,3.5-1.6,3.5-3.5
		C72.8,19.4,71.3,17.8,69.3,17.8L69.3,17.8z"/>
	<polygon class="st5" points="41.4,34.4 41.4,43.5 47.7,43.5 48.3,42.9 41.4,34.4 	"/>
	<path class="st5" d="M44.8,25.5c-1.7,0-3.1,1.4-3.1,3.1s1.4,3.1,3.1,3.1c1.7,0,3.1-1.4,3.1-3.1S46.5,25.5,44.8,25.5L44.8,25.5z"/>
	<path class="st5" d="M86.7,32.6c-1.5,0-2.7,1.2-2.7,2.7c0,1.5,1.2,2.7,2.7,2.7c1.5,0,2.7-1.2,2.7-2.7
		C89.5,33.9,88.3,32.6,86.7,32.6L86.7,32.6z"/>
	<path class="st5" d="M93.9,48.1c-0.8,0-1.5,0.7-1.5,1.5c0,0.8,0.7,1.5,1.5,1.5c0.8,0,1.5-0.7,1.5-1.5
		C95.4,48.8,94.7,48.1,93.9,48.1L93.9,48.1z"/>
	<path class="st5" d="M87.9,48.1c-0.8,0-1.5,0.7-1.5,1.5c0,0.8,0.7,1.5,1.5,1.5c0.8,0,1.5-0.7,1.5-1.5
		C89.4,48.8,88.7,48.1,87.9,48.1L87.9,48.1z"/>
	<path class="st5" d="M78.5,35.9c-0.7,0-1.2,0.5-1.2,1.2c0,0.7,0.5,1.2,1.2,1.2c0.7,0,1.2-0.5,1.2-1.2
		C79.7,36.4,79.2,35.9,78.5,35.9L78.5,35.9z"/>
	<polygon class="st3" points="106.6,54.3 106.6,61.1 107.4,61.1 107.4,54.3 106.6,54.3 	"/>
	<polygon class="st3" points="106.1,61.1 106.1,54.3 105.2,54.3 105.3,61.1 106.1,61.1 	"/>
	<polygon class="st3" points="32,61.1 32,54.3 31.2,54.3 31.2,61.1 32,61.1 	"/>
	<polygon class="st3" points="40.4,54.3 40.4,61.1 41,61.1 41,54.3 40.4,54.3 	"/>
	<polygon class="st5" points="26.1,4 26.1,4 26.1,4 26.1,4 26.1,4 26.1,4 26.1,4 26.1,4 26.1,4 26.1,4 26.1,4 26.1,4 26.1,4 	"/>
	<polygon class="st5" points="26.1,4 26.1,4 26.1,4 26.1,4 26.1,4 26.1,4 26.2,4 26.2,4 26.1,4 26.1,4 26.1,4 	"/>
	<polygon class="st5" points="26.1,4.1 26.1,4.1 26.1,4 26.1,4 26.1,4.1 	"/>
	<polygon class="st5" points="26.1,4.1 26.1,4 26.1,4 26.1,4.1 26.1,4.1 26.1,4 26.1,4 26.1,4.1 26.1,4.1 26.1,4.1 26.1,4.1 
		26.1,4.1 26.1,4.1 	"/>
	<line class="st2" x1="10.4" y1="67" x2="119" y2="67"/>
	<g>
		<path class="st4" d="M24.9,77.1l2.2,0.3c-0.1,0.5-0.3,1-0.6,1.4s-0.6,0.7-1.1,0.9c-0.4,0.2-1,0.3-1.7,0.3c-0.7,0-1.2-0.1-1.6-0.2
			c-0.4-0.1-0.8-0.4-1.1-0.7s-0.6-0.7-0.7-1.1c-0.2-0.4-0.3-1-0.3-1.7c0-0.7,0.1-1.3,0.3-1.8c0.2-0.4,0.4-0.7,0.6-0.9
			s0.6-0.5,0.8-0.6c0.5-0.2,1-0.3,1.8-0.3c1,0,1.8,0.2,2.3,0.6c0.5,0.4,0.9,1,1.1,1.8l-2.2,0.3c-0.1-0.3-0.2-0.5-0.4-0.7
			c-0.2-0.2-0.4-0.2-0.7-0.2c-0.4,0-0.7,0.2-0.9,0.5s-0.4,0.8-0.4,1.4c0,0.6,0.1,1,0.4,1.3s0.5,0.4,0.9,0.4c0.3,0,0.6-0.1,0.8-0.3
			C24.6,77.8,24.8,77.5,24.9,77.1z"/>
		<path class="st4" d="M34.7,79.8h-2.2v-1.1c-0.3,0.5-0.7,0.8-1,1c-0.3,0.2-0.7,0.3-1.2,0.3c-0.6,0-1.2-0.2-1.5-0.7
			c-0.4-0.4-0.6-1.1-0.6-2v-4.4h2.4v3.8c0,0.4,0.1,0.8,0.2,0.9c0.1,0.2,0.3,0.3,0.6,0.3c0.3,0,0.5-0.1,0.7-0.4
			c0.2-0.2,0.3-0.7,0.3-1.3v-3.4h2.4V79.8z"/>
		<path class="st4" d="M42.9,77h-4.7c0,0.4,0.1,0.8,0.3,1c0.2,0.3,0.5,0.5,0.9,0.5c0.2,0,0.5-0.1,0.7-0.2c0.1-0.1,0.3-0.2,0.4-0.4
			l2.3,0.2c-0.4,0.7-0.8,1.2-1.3,1.5C41,79.8,40.3,80,39.4,80c-0.8,0-1.5-0.1-1.9-0.4s-0.9-0.7-1.2-1.2s-0.5-1.2-0.5-2
			c0-1.1,0.3-2,0.9-2.7s1.5-1,2.5-1c0.9,0,1.6,0.2,2.1,0.5s0.9,0.7,1.2,1.3c0.3,0.6,0.4,1.3,0.4,2.2V77z M40.5,75.7
			c0-0.5-0.2-0.9-0.4-1.1c-0.2-0.2-0.5-0.3-0.8-0.3c-0.4,0-0.7,0.2-0.9,0.5c-0.1,0.2-0.2,0.5-0.3,0.9H40.5z"/>
		<path class="st4" d="M43.6,77.9l2.3-0.3c0.1,0.3,0.2,0.5,0.4,0.7c0.2,0.1,0.4,0.2,0.7,0.2c0.3,0,0.6-0.1,0.7-0.2
			c0.1-0.1,0.2-0.3,0.2-0.4c0-0.2-0.1-0.3-0.3-0.4c-0.1-0.1-0.5-0.2-1-0.3c-0.8-0.2-1.4-0.3-1.7-0.5c-0.3-0.1-0.6-0.4-0.8-0.7
			c-0.2-0.3-0.3-0.7-0.3-1.1c0-0.5,0.1-0.9,0.4-1.2c0.2-0.3,0.6-0.6,1-0.7c0.4-0.2,1-0.2,1.7-0.2c0.7,0,1.3,0.1,1.6,0.2
			c0.3,0.1,0.6,0.3,0.9,0.6s0.4,0.6,0.6,1.1l-2.2,0.3c-0.1-0.2-0.2-0.4-0.3-0.5c-0.2-0.1-0.4-0.2-0.7-0.2c-0.3,0-0.5,0.1-0.6,0.2
			C46,74.4,46,74.5,46,74.7c0,0.2,0.1,0.3,0.2,0.4s0.5,0.2,1,0.2c0.8,0.1,1.4,0.2,1.7,0.4s0.7,0.4,0.9,0.8c0.2,0.3,0.3,0.7,0.3,1.1
			c0,0.4-0.1,0.8-0.3,1.2c-0.2,0.4-0.6,0.7-1,0.9S47.7,80,46.9,80c-1.1,0-1.9-0.2-2.4-0.5C44.1,79.1,43.7,78.6,43.6,77.9z"/>
		<path class="st4" d="M54.1,70.2v2.7h1.3v2h-1.3v2.5c0,0.3,0,0.5,0.1,0.6c0.1,0.1,0.2,0.2,0.4,0.2c0.2,0,0.4-0.1,0.7-0.2l0.2,1.8
			c-0.6,0.1-1.1,0.2-1.6,0.2c-0.6,0-1-0.1-1.3-0.3s-0.5-0.4-0.6-0.8c-0.1-0.3-0.2-0.9-0.2-1.7v-2.5h-0.9v-2h0.9v-1.3L54.1,70.2z"/>
		<path class="st4" d="M58.7,75.1l-2.3-0.3c0.1-0.4,0.2-0.8,0.4-1.1s0.4-0.5,0.7-0.7c0.2-0.1,0.5-0.2,0.9-0.3
			c0.4-0.1,0.8-0.1,1.2-0.1c0.7,0,1.3,0,1.7,0.1s0.8,0.3,1.1,0.6c0.2,0.2,0.4,0.5,0.5,0.8c0.1,0.4,0.2,0.7,0.2,1v3.1
			c0,0.3,0,0.6,0.1,0.8c0,0.2,0.1,0.4,0.2,0.7h-2.2c-0.1-0.2-0.1-0.3-0.2-0.4c0-0.1-0.1-0.2-0.1-0.4c-0.3,0.3-0.6,0.6-0.9,0.7
			C59.5,79.9,59,80,58.5,80c-0.7,0-1.3-0.2-1.7-0.6c-0.4-0.4-0.6-0.9-0.6-1.4c0-0.5,0.1-1,0.4-1.3c0.3-0.3,0.8-0.6,1.5-0.8
			c0.9-0.2,1.5-0.3,1.7-0.4s0.5-0.2,0.8-0.3c0-0.3-0.1-0.6-0.2-0.7s-0.3-0.2-0.6-0.2c-0.4,0-0.7,0.1-0.9,0.2
			C58.9,74.6,58.8,74.8,58.7,75.1z M60.7,76.5c-0.3,0.1-0.7,0.2-1,0.3c-0.5,0.1-0.8,0.3-0.9,0.4c-0.1,0.1-0.2,0.3-0.2,0.5
			c0,0.2,0.1,0.4,0.2,0.5s0.3,0.2,0.6,0.2c0.3,0,0.5-0.1,0.7-0.2c0.2-0.1,0.4-0.3,0.5-0.5s0.1-0.5,0.1-0.8V76.5z"/>
	</g>
	<g>
		<path class="st4" d="M68.4,72.9h2.2v1c0.3-0.4,0.6-0.7,1-0.9c0.3-0.2,0.7-0.3,1.2-0.3c0.5,0,0.9,0.1,1.2,0.3
			c0.3,0.2,0.5,0.5,0.7,0.9c0.4-0.5,0.7-0.8,1-0.9c0.3-0.2,0.7-0.2,1.1-0.2c0.7,0,1.2,0.2,1.5,0.7s0.6,1.1,0.6,2.1v4.4h-2.4v-4
			c0-0.3-0.1-0.6-0.2-0.7c-0.2-0.2-0.4-0.4-0.6-0.4c-0.3,0-0.5,0.1-0.7,0.3s-0.3,0.6-0.3,1.1v3.6h-2.4V76c0-0.3,0-0.5,0-0.6
			c-0.1-0.2-0.1-0.3-0.3-0.4c-0.1-0.1-0.3-0.2-0.4-0.2c-0.3,0-0.5,0.1-0.7,0.3c-0.2,0.2-0.3,0.6-0.3,1.1v3.6h-2.4V72.9z"/>
		<path class="st4" d="M87.1,77h-4.7c0,0.4,0.1,0.8,0.3,1c0.2,0.3,0.5,0.5,0.9,0.5c0.2,0,0.5-0.1,0.7-0.2c0.1-0.1,0.3-0.2,0.4-0.4
			l2.3,0.2c-0.4,0.7-0.8,1.2-1.3,1.5c-0.5,0.3-1.2,0.5-2.2,0.5c-0.8,0-1.5-0.1-1.9-0.4s-0.9-0.7-1.2-1.2s-0.5-1.2-0.5-2
			c0-1.1,0.3-2,0.9-2.7s1.5-1,2.5-1c0.9,0,1.6,0.2,2.1,0.5c0.5,0.3,0.9,0.7,1.2,1.3c0.3,0.6,0.4,1.3,0.4,2.2V77z M84.7,75.7
			c0-0.5-0.2-0.9-0.4-1.1c-0.2-0.2-0.5-0.3-0.8-0.3c-0.4,0-0.7,0.2-0.9,0.5c-0.1,0.2-0.2,0.5-0.3,0.9H84.7z"/>
		<path class="st4" d="M88.1,72.9h2.2V74c0.3-0.5,0.7-0.8,1-1c0.3-0.2,0.7-0.3,1.2-0.3c0.7,0,1.2,0.2,1.5,0.7c0.4,0.4,0.6,1.1,0.6,2
			v4.4h-2.4V76c0-0.4-0.1-0.7-0.2-0.9c-0.1-0.2-0.3-0.3-0.6-0.3c-0.3,0-0.5,0.1-0.7,0.4s-0.3,0.7-0.3,1.3v3.4h-2.4V72.9z"/>
		<path class="st4" d="M95.8,76.4c0-1.1,0.3-1.9,0.9-2.6c0.6-0.7,1.5-1,2.6-1c1.2,0,2.2,0.4,2.8,1.2c0.5,0.7,0.8,1.5,0.8,2.4
			c0,1.1-0.3,2-0.9,2.6c-0.6,0.7-1.5,1-2.6,1c-1,0-1.8-0.3-2.4-0.9C96.1,78.4,95.8,77.5,95.8,76.4z M98.1,76.4
			c0,0.6,0.1,1.1,0.3,1.4c0.2,0.3,0.5,0.4,0.8,0.4c0.3,0,0.6-0.1,0.8-0.4s0.3-0.8,0.3-1.4c0-0.6-0.1-1.1-0.3-1.4
			c-0.2-0.3-0.5-0.4-0.8-0.4c-0.3,0-0.6,0.2-0.9,0.5C98.2,75.3,98.1,75.7,98.1,76.4z"/>
		<path class="st4" d="M103.5,77.9l2.3-0.3c0.1,0.3,0.2,0.5,0.4,0.7s0.4,0.2,0.7,0.2c0.3,0,0.6-0.1,0.7-0.2c0.1-0.1,0.2-0.3,0.2-0.4
			c0-0.2-0.1-0.3-0.3-0.4c-0.1-0.1-0.5-0.2-1-0.3c-0.8-0.2-1.4-0.3-1.7-0.5s-0.6-0.4-0.8-0.7c-0.2-0.3-0.3-0.7-0.3-1.1
			c0-0.5,0.1-0.9,0.4-1.2c0.2-0.3,0.6-0.6,1-0.7c0.4-0.2,1-0.2,1.7-0.2c0.7,0,1.3,0.1,1.6,0.2c0.3,0.1,0.6,0.3,0.9,0.6
			s0.4,0.6,0.6,1.1l-2.2,0.3c-0.1-0.2-0.2-0.4-0.3-0.5c-0.2-0.1-0.4-0.2-0.7-0.2c-0.3,0-0.5,0.1-0.6,0.2c-0.1,0.1-0.2,0.2-0.2,0.4
			c0,0.2,0.1,0.3,0.2,0.4s0.5,0.2,1,0.2c0.8,0.1,1.4,0.2,1.7,0.4s0.7,0.4,0.9,0.8c0.2,0.3,0.3,0.7,0.3,1.1c0,0.4-0.1,0.8-0.3,1.2
			c-0.2,0.4-0.6,0.7-1,0.9s-1.1,0.3-1.9,0.3c-1.1,0-1.9-0.2-2.4-0.5C104,79.1,103.7,78.6,103.5,77.9z"/>
	</g>
</g>
</svg>
